<?xml version="1.0" encoding="utf-8"?>
<!-- Generator: Adobe Illustrator 26.0.0, SVG Export Plug-In . SVG Version: 6.00 Build 0)  -->
<svg version="1.1" id="Layer_1" xmlns="http://www.w3.org/2000/svg" xmlns:xlink="http://www.w3.org/1999/xlink" x="0px" y="0px"
	 viewBox="0 0 16 16" style="enable-background:new 0 0 16 16;" xml:space="preserve">
<style type="text/css">
	.st0{fill:#FFFFFF;}
</style>
<path class="st0" d="M8,16c1.1,0,2-0.9,2-2H6C6,15.1,6.9,16,8,16 M8,1.9L7.2,2.1C5.3,2.5,4,4.1,4,6c0,0.6-0.1,2.2-0.5,3.7
	c-0.2,0.8-0.4,1.6-0.7,2.3h10.2c-0.3-0.7-0.5-1.5-0.7-2.3C12.1,8.2,12,6.6,12,6c0-1.9-1.3-3.5-3.2-3.9L8,1.9z M14.2,12
	c0.2,0.4,0.5,0.8,0.8,1H1c0.3-0.2,0.6-0.6,0.8-1C2.7,10.2,3,6.9,3,6c0-2.4,1.7-4.4,4-4.9C6.9,0.5,7.4,0.1,7.9,0s1,0.3,1.1,0.9
	C9,1,9,1,9,1.1c2.3,0.5,4,2.5,4,4.9C13,6.9,13.3,10.2,14.2,12"/>
</svg>
